<?xml version="1.0" encoding="utf-8"?>
<!-- Generator: Adobe Illustrator 23.0.3, SVG Export Plug-In . SVG Version: 6.00 Build 0)  -->
<svg version="1.1" id="Слой_1" xmlns="http://www.w3.org/2000/svg" xmlns:xlink="http://www.w3.org/1999/xlink" x="0px" y="0px"
	 viewBox="0 0 153 22.7" style="enable-background:new 0 0 153 22.7;" xml:space="preserve">
<style type="text/css">
	.st0{enable-background:new    ;}
	.st1{fill:#FFC222;}
	.st2{fill:#212020;}
</style>
<g class="st0">
	<path class="st1" d="M-0.9,21.7v-1.8l2.4-0.4V2.9l-2.4-0.4V0.7h2.4h2.8h2.4v1.8L4.3,2.9v16.6h7.3l0.2-2.4h2.4v4.6H-0.9z"/>
	<path class="st1" d="M34.2,11.3c0,3.1-0.9,5.6-2.6,7.6c-1.8,2-4,3-6.8,3c-2.7,0-4.9-1-6.6-3c-1.7-2-2.5-4.6-2.5-7.6V11
		c0-3.1,0.8-5.6,2.5-7.6c1.7-2,3.9-3,6.6-3c2.8,0,5.1,1,6.8,3c1.8,2,2.6,4.6,2.6,7.6V11.3z M31.3,11c0-2.4-0.6-4.4-1.8-6
		c-1.2-1.5-2.8-2.3-4.9-2.3c-2,0-3.5,0.8-4.6,2.3s-1.7,3.5-1.7,6v0.3c0,2.5,0.6,4.5,1.7,6c1.1,1.5,2.7,2.3,4.6,2.3
		c2.1,0,3.7-0.8,4.9-2.3s1.7-3.5,1.7-6V11z"/>
	<path class="st1" d="M53.1,19.3c-0.6,0.6-1.5,1.3-2.7,1.8c-1.2,0.6-2.8,0.9-4.7,0.9c-2.8,0-5.1-1-6.9-3s-2.7-4.5-2.7-7.7V11
		c0-3.2,0.9-5.7,2.6-7.7c1.8-2,4.1-2.9,7-2.9c1.6,0,2.9,0.2,4.1,0.7s2.2,1.1,3,1.9v3.8h-2l-0.7-2.9c-0.5-0.4-1-0.7-1.7-1
		S47,2.6,46,2.6c-2.3,0-4,0.8-5.3,2.3c-1.2,1.6-1.8,3.6-1.8,6v0.4c0,2.5,0.6,4.5,1.8,6.1c1.2,1.6,2.8,2.3,4.9,2.3
		c1.1,0,2.1-0.1,2.8-0.4c0.7-0.2,1.3-0.5,1.8-0.8V14l-3.5-0.1v-2.1h6.3V19.3z"/>
	<path class="st1" d="M75.1,11.3c0,3.1-0.9,5.6-2.6,7.6c-1.8,2-4,3-6.8,3c-2.7,0-4.9-1-6.6-3c-1.7-2-2.5-4.6-2.5-7.6V11
		c0-3.1,0.8-5.6,2.5-7.6c1.7-2,3.9-3,6.6-3c2.8,0,5.1,1,6.8,3c1.8,2,2.6,4.6,2.6,7.6V11.3z M72.2,11c0-2.4-0.6-4.4-1.8-6
		c-1.2-1.5-2.8-2.3-4.9-2.3c-2,0-3.5,0.8-4.6,2.3s-1.7,3.5-1.7,6v0.3c0,2.5,0.6,4.5,1.7,6c1.1,1.5,2.7,2.3,4.6,2.3
		c2.1,0,3.7-0.8,4.9-2.3s1.7-3.5,1.7-6V11z"/>
</g>
<g class="st0">
	<path class="st2" d="M93.4,0.7v4.2h-0.8V1.4h-6.9v19.5h2.4v0.8h-5.5v-0.8H85V1.4h-6.9v3.5h-0.8V0.7H93.4z"/>
	<path class="st2" d="M100.2,1.4h-1.9l6.5,10.9l0.4,0.7l0.4-0.7l6.5-10.9h-1.9V0.7h4.6v0.8h-1.7l-7.4,12.3v7.2h2.4v0.8h-5.5v-0.8
		h2.4v-7.2L97.4,1.4h-1.7V0.7h4.6V1.4z"/>
	<path class="st2" d="M124.8,0.7c2.2,0,3.9,0.5,5,1.6c1.2,1.1,1.8,2.5,1.8,4.4c0,1.8-0.6,3.3-1.8,4.4s-2.8,1.6-5,1.6h-5.1v8.2h2.4
		v0.8h-5.5v-0.8h2.4V1.4h-2.4V0.7h2.4H124.8z M119.7,11.9h5.1c2,0,3.5-0.5,4.5-1.5c1-1,1.5-2.2,1.5-3.7c0-1.5-0.5-2.8-1.5-3.8
		s-2.5-1.5-4.5-1.5h-5.1V11.9z"/>
	<path class="st2" d="M134.7,21.7v-0.8h2.4V1.4h-2.4V0.7h15.2v4.2H149V1.4h-11.2v8.9h9.1v0.8h-9.1v9.8H149v-3.5h0.8v4.2H134.7z"/>
</g>
</svg>
